<?xml version="1.0" encoding="UTF-8"?>
<svg enable-background="new 0 0 511.999 511.999" version="1.1" viewBox="0 0 512 512" xml:space="preserve" xmlns="http://www.w3.org/2000/svg">
		<path d="m139.49 84.829c-11.584 0-22.844 2.643-33.471 7.858-26.787 13.146-45.144 41.241-46.768 71.571-1.23 23.017 4.533 41.91 19.891 65.216 4.312 6.545 19.011 24.124 29.122 34.835 2.991 3.166 7.018 4.765 11.055 4.765 3.744 0 7.495-1.374 10.432-4.148 6.104-5.764 6.379-15.384 0.617-21.488-10.082-10.681-23.045-26.451-25.84-30.692-11.748-17.828-15.791-30.529-14.919-46.866 1.046-19.511 12.745-37.529 29.804-45.903 6.422-3.151 13.175-4.748 20.076-4.748 8.393 0 15.2-6.807 15.2-15.2s-6.806-15.2-15.199-15.2z"/>
		<path d="m151.17 268.27h-0.015c-8.393 0-15.192 6.807-15.192 15.2s6.813 15.2 15.208 15.2 15.2-6.807 15.2-15.2c-1e-3 -8.393-6.806-15.2-15.201-15.2z"/>
		<path d="m457.6 292.42c10.783-11.759 19.041-21.967 24.621-30.45 15.042-22.887 31.996-55.035 29.54-100.88-1.93-36.061-17.197-69.922-42.993-95.348-26.182-25.807-60.369-40.017-96.26-40.017-52.689 0-95.815 40.323-116.24 63.478-19.841-23.297-62.001-63.478-116.78-63.478-35.89 0-70.075 14.212-96.254 40.017-25.796 25.427-41.065 59.288-42.994 95.35-1.914 35.849 7.202 66.965 29.555 100.89 20.052 30.426 72.272 78.539 110.89 110.5 23.966 19.828 46.567 36.866 65.363 49.271 30.497 20.128 42.835 22.709 50.174 22.709 6.335 0 16.263-1.888 37.596-14.624 18.588 33.609 54.396 56.426 95.444 56.426 60.104 0 109-48.897 109-109-1e-3 -34.249-15.893-64.842-40.675-84.84zm-177.31 85.606c0.012 1.683 0.05 3.361 0.137 5.025 0.03 0.558 0.09 1.111 0.128 1.671 0.094 1.388 0.195 2.774 0.341 4.148 0.058 0.543 0.141 1.082 0.207 1.623 0.17 1.397 0.351 2.789 0.575 4.169 0.082 0.506 0.182 1.008 0.271 1.512 0.249 1.418 0.517 2.829 0.821 4.227 0.037 0.172 0.061 0.342 0.097 0.508-19 11.868-25.69 13.034-26.627 13.143-7.924-0.793-41.186-19.345-97.584-66.172-47.334-39.3-88.916-80.544-103.47-102.62-18.546-28.146-26.127-53.603-24.585-82.539 3.146-58.774 51.996-106.59 108.89-106.59 59.07 0 103.43 65.348 103.85 65.99 2.773 4.175 7.431 6.709 12.444 6.784 5.027 0.065 9.745-2.335 12.64-6.427 0.47-0.664 47.599-66.347 104.07-66.347 56.901 0 105.75 47.816 108.9 106.59 1.567 29.262-5.787 53.95-24.585 82.55-5.323 8.091-14.204 18.783-25.93 31.239-0.877-0.362-1.769-0.681-2.655-1.02-0.632-0.242-1.259-0.497-1.895-0.728-0.755-0.274-1.52-0.518-2.282-0.775-0.983-0.331-1.965-0.667-2.961-0.974-0.471-0.143-0.947-0.266-1.42-0.404-1.274-0.371-2.551-0.734-3.844-1.06-0.26-0.064-0.523-0.117-0.783-0.179-1.484-0.362-2.973-0.704-4.478-1.003-0.158-0.032-0.318-0.055-0.477-0.087-1.584-0.307-3.175-0.59-4.783-0.828-0.211-0.032-0.424-0.05-0.637-0.081-1.538-0.22-3.083-0.419-4.641-0.573-0.532-0.053-1.069-0.078-1.602-0.122-1.239-0.103-2.478-0.216-3.729-0.277-1.807-0.091-3.619-0.138-5.431-0.138-5.635 0-11.171 0.429-16.577 1.259-52.265 8.009-92.425 53.273-92.425 107.74-1e-3 0.258 0.019 0.513 0.02 0.769zm108.98 77.836c-34.763 0-64.307-22.694-74.649-54.036-0.213-0.645-0.423-1.289-0.617-1.936-0.131-0.435-0.251-0.875-0.374-1.313-0.198-0.701-0.4-1.401-0.578-2.107-0.039-0.158-0.071-0.322-0.111-0.482-0.356-1.449-0.663-2.906-0.935-4.372-0.114-0.614-0.231-1.228-0.331-1.847-0.087-0.538-0.16-1.076-0.234-1.614-0.097-0.696-0.188-1.394-0.268-2.096-0.055-0.486-0.105-0.974-0.151-1.462-0.076-0.822-0.138-1.648-0.188-2.476-0.024-0.382-0.053-0.763-0.071-1.146-0.058-1.233-0.094-2.467-0.094-3.712 0-37.923 26.995-69.659 62.779-77 5.112-1.049 10.403-1.601 15.82-1.601 1.532 0 3.061 0.055 4.587 0.144 0.4 0.024 0.795 0.062 1.195 0.093 1.16 0.085 2.318 0.19 3.472 0.327 0.404 0.047 0.807 0.1 1.21 0.155 1.207 0.161 2.409 0.351 3.605 0.568 0.307 0.056 0.617 0.106 0.923 0.166 2.991 0.579 5.945 1.333 8.845 2.253 0.448 0.143 0.889 0.301 1.333 0.453 0.914 0.307 1.821 0.631 2.722 0.973 0.638 0.243 1.274 0.492 1.905 0.752 0.652 0.267 1.297 0.549 1.941 0.834 0.751 0.333 1.503 0.661 2.242 1.015 0.234 0.112 0.464 0.239 0.696 0.353 25.995 12.835 43.925 39.616 43.925 70.516 2e-3 43.338-35.258 78.598-78.599 78.598z"/>
		<path d="m434.98 346.45c-6.241-5.61-15.855-5.098-21.466 1.148l-30.972 34.469-19.652-11.792c-7.197-4.32-16.536-1.987-20.854 5.215-4.318 7.197-1.985 16.535 5.215 20.854l30.4 18.24c2.432 1.459 5.133 2.166 7.813 2.166 4.2 0 8.343-1.737 11.313-5.04l39.35-43.793c5.611-6.246 5.097-15.857-1.147-21.467z"/>
</svg>