<?xml version="1.0" encoding="UTF-8"?>
<svg enable-background="new 0 0 512.001 512.001" version="1.1" viewBox="0 0 512 512" xml:space="preserve" xmlns="http://www.w3.org/2000/svg">
		<path d="m115.91 103.56c-9.765 0-19.254 2.227-28.202 6.62-22.854 11.219-37.911 34.253-39.295 60.118-1.027 19.258 3.772 35.033 16.568 54.455 3.382 5.131 10.782 13.893 19.795 23.439 2.826 2.993 6.634 4.503 10.45 4.503 3.539 0 7.085-1.3 9.861-3.921 5.77-5.448 6.03-14.542 0.583-20.313-8.752-9.271-14.692-16.486-16.692-19.521-9.34-14.173-12.555-24.231-11.868-37.109 0.815-15.245 9.946-29.319 23.26-35.854 4.973-2.441 10.202-3.68 15.539-3.68 7.936 0 14.368-6.433 14.368-14.368 1e-3 -7.937-6.431-14.369-14.367-14.369z"/>
		<path d="m125.45 253.42h-0.014c-7.936 0-14.361 6.433-14.361 14.368 0 7.936 6.44 14.368 14.376 14.368s14.368-6.433 14.368-14.368c-1e-3 -7.935-6.435-14.368-14.369-14.368z"/>
		<path d="m511.84 271.18c-1.292-24.151-11.518-46.828-28.792-63.853-16.685-16.445-38.229-25.856-61.008-26.763 0.182-4.25 0.17-8.542-0.062-12.857-1.604-29.945-14.282-58.064-35.704-79.177-21.755-21.443-50.17-33.253-80.008-33.253-42.534 0-77.473 31.5-94.931 50.86-16.991-19.475-51.228-50.86-95.425-50.86-29.836 0-58.25 11.809-80.005 33.253-21.418 21.114-34.096 49.232-35.7 79.18-1.586 29.731 5.959 55.514 24.465 83.599 16.499 25.036 59.322 64.506 90.978 90.698 19.63 16.242 38.154 30.204 53.567 40.377 25.349 16.729 35.795 18.874 42.062 18.874 5.428 0 13.933-1.569 32.147-12.483 8.201 7.421 16.514 14.584 24.258 20.992 15.4 12.743 29.947 23.705 42.065 31.703 20.359 13.436 28.892 15.248 34.556 15.248 13.374 0 39.145-15.765 76.597-46.857 25.86-21.469 58.184-51.544 71.349-71.564 9.982-15.186 21.229-36.539 19.591-67.117zm-300.56 101.3c-6.964-1.172-34.101-16.659-79.156-54.145-38.222-31.8-71.763-65.093-83.461-82.843-15.107-22.928-21.018-42.742-19.764-66.252 2.514-46.996 41.548-85.229 87.01-85.229 47.186 0 82.877 52.528 83.218 53.037 2.619 3.947 7.023 6.341 11.761 6.411 4.747 0.04 9.212-2.206 11.949-6.072 0.378-0.535 38.325-53.377 83.428-53.377 45.465 0 84.5 38.234 87.015 85.231 0.29 5.423 0.181 10.64-0.339 15.772-1.283 0.454-2.55 0.937-3.805 1.444-0.068 0.027-0.134 0.056-0.201 0.083-1.187 0.484-2.358 0.99-3.516 1.517-0.066 0.03-0.132 0.059-0.197 0.089-2.437 1.116-4.809 2.326-7.115 3.606-0.042 0.023-0.085 0.046-0.126 0.07-14.093 7.852-25.648 18.361-33.598 26.803-0.312-0.342-0.638-0.69-0.961-1.037-0.139-0.149-0.272-0.295-0.412-0.445-0.264-0.283-0.542-0.57-0.815-0.856-0.211-0.221-0.417-0.441-0.632-0.665-0.207-0.216-0.425-0.435-0.638-0.652-0.293-0.3-0.581-0.598-0.881-0.901-0.128-0.129-0.263-0.26-0.391-0.389-0.394-0.394-0.786-0.787-1.193-1.185-0.214-0.21-0.438-0.422-0.657-0.634-0.33-0.319-0.657-0.638-0.994-0.958-0.134-0.128-0.274-0.256-0.409-0.384-11.776-11.1-28.323-23.064-48.327-27.872-0.135-0.033-0.273-0.059-0.409-0.091-1.796-0.422-3.617-0.792-5.466-1.092-0.381-0.062-0.769-0.108-1.151-0.164-0.618-0.091-1.233-0.188-1.858-0.264-0.139-0.017-0.283-0.027-0.422-0.043-0.872-0.102-1.746-0.197-2.629-0.27-0.319-0.026-0.644-0.037-0.966-0.06-1.739-0.121-3.493-0.197-5.273-0.197-24.113 0-47.067 9.536-64.634 26.852-17.272 17.027-27.497 39.703-28.79 63.855-0.414 7.747 0.03 14.945 1.07 21.599 0.593 3.796 1.4 7.395 2.333 10.841 0.97 3.572 2.092 6.953 3.323 10.151 0.325 0.842 0.652 1.675 0.99 2.493 1.178 2.849 2.428 5.538 3.717 8.077 0.884 1.74 1.777 3.425 2.68 5.022 0.04 0.07 0.079 0.147 0.119 0.217 1.818 3.2 3.644 6.108 5.371 8.729 0.388 0.589 0.795 1.187 1.216 1.79 0.207 0.297 0.428 0.603 0.644 0.905 0.213 0.297 0.42 0.593 0.639 0.894 0.312 0.43 0.639 0.866 0.967 1.303 0.121 0.161 0.239 0.32 0.361 0.483 0.412 0.545 0.839 1.096 1.273 1.652 0.026 0.032 0.05 0.063 0.075 0.096 5.426 6.934 12.501 14.683 20.416 22.656-6.553 3.469-9.546 4.236-10.389 4.399zm256.96-49.975c-8.952 13.613-34.445 39.074-63.438 63.359-33.322 27.912-54.244 40.298-60.461 41.999-6.222-1.754-27.201-14.235-60.701-42.206-15.466-12.914-29.911-26.115-41.39-37.67-0.072-0.072-0.142-0.144-0.213-0.216-1.598-1.611-3.132-3.185-4.608-4.727-0.483-0.504-0.966-1.009-1.435-1.506-0.22-0.233-0.435-0.463-0.652-0.693-0.589-0.628-1.171-1.25-1.736-1.862-0.098-0.106-0.197-0.213-0.295-0.318-4.349-4.721-7.96-8.97-10.677-12.577-0.091-0.119-0.178-0.239-0.267-0.358-0.335-0.448-0.652-0.884-0.957-1.312-0.095-0.132-0.194-0.269-0.286-0.399-0.371-0.526-0.723-1.039-1.047-1.53-11.386-17.279-15.843-32.168-14.903-49.781 1.875-35.017 30.911-63.504 64.729-63.504 35.083 0 62.043 39.595 62.293 39.966 0.655 0.986 1.421 1.875 2.276 2.655 0.292 0.266 0.606 0.5 0.917 0.74 0.145 0.112 0.279 0.24 0.428 0.346 1.368 0.974 2.902 1.695 4.53 2.144 0.046 0.013 0.091 0.033 0.136 0.045 0.379 0.101 0.769 0.164 1.157 0.233 0.185 0.033 0.365 0.085 0.553 0.111 0.262 0.036 0.532 0.039 0.796 0.062 0.319 0.026 0.636 0.069 0.96 0.073h3e-3 1e-3c7e-3 0 0.016-1e-3 0.023-1e-3 4.75 0.065 9.187-2.204 11.923-6.058 3e-3 -4e-3 0.029-0.039 0.042-0.057 0.013-0.019 0.026-0.036 0.05-0.07 0.03-0.042 0.083-0.112 0.128-0.174 0.034-0.047 0.068-0.091 0.111-0.149 0.065-0.086 0.148-0.197 0.23-0.307 0.045-0.059 0.088-0.116 0.136-0.181 0.106-0.141 0.23-0.302 0.361-0.473 0.042-0.053 0.083-0.108 0.126-0.164 0.152-0.197 0.319-0.411 0.499-0.641 0.034-0.043 0.07-0.089 0.105-0.134 0.204-0.259 0.421-0.533 0.658-0.828 0.01-0.013 0.02-0.026 0.03-0.037 6.765-8.418 26.651-30.816 50.494-36.019 0.142-0.032 0.274-0.088 0.415-0.124 2.99-0.616 6.041-0.961 9.131-0.961 33.82 0 62.859 28.488 64.733 63.506 0.94 17.578-3.518 32.47-14.908 49.798z"/>
</svg>
