<?xml version="1.0" encoding="UTF-8"?>
<svg enable-background="new 0 0 512 512" version="1.1" viewBox="0 0 512 512" xml:space="preserve" xmlns="http://www.w3.org/2000/svg">
		<path d="m139.5 84.828c-11.584 0-22.846 2.643-33.471 7.858-26.787 13.148-45.144 41.241-46.768 71.571-1.228 23.018 4.534 41.91 19.889 65.216 4.311 6.542 19.009 24.123 29.125 34.836 2.99 3.166 7.018 4.765 11.055 4.765 3.744 0 7.495-1.374 10.432-4.148 6.104-5.764 6.379-15.384 0.617-21.488-10.087-10.684-23.049-26.451-25.843-30.692-11.747-17.828-15.79-30.531-14.917-46.866 1.044-19.511 12.742-37.528 29.804-45.903 6.421-3.151 13.174-4.749 20.076-4.749 8.395 0 15.2-6.807 15.2-15.2s-6.804-15.2-15.199-15.2z"/>
		<path d="m151.17 268.26h-0.015c-8.395 0-15.193 6.807-15.193 15.2s6.813 15.2 15.208 15.2 15.2-6.807 15.2-15.2-6.805-15.2-15.2-15.2z"/>
		<path d="m457.6 292.43c10.783-11.763 19.041-21.972 24.62-30.452 15.044-22.888 31.998-55.036 29.54-100.88-1.929-36.061-17.197-69.922-42.993-95.349-26.182-25.805-60.367-40.016-96.261-40.016-52.688 0-95.814 40.323-116.23 63.477-19.839-23.294-61.998-63.477-116.78-63.477-35.89 0-70.076 14.212-96.255 40.017-25.796 25.426-41.064 59.288-42.995 95.35-1.912 35.851 7.203 66.967 29.557 100.89 20.052 30.426 72.27 78.539 110.89 110.5 23.964 19.829 46.567 36.866 65.363 49.271 30.497 20.128 42.834 22.709 50.172 22.709 6.335 0 16.263-1.888 37.594-14.622 18.588 33.609 54.397 56.426 95.444 56.426 60.104 0 109-48.899 109-109 3e-3 -34.248-15.89-64.842-40.673-84.839zm-177.17 90.66c0.024 0.467 0.076 0.929 0.106 1.394 0.097 1.482 0.207 2.961 0.363 4.426 0.052 0.488 0.128 0.973 0.185 1.459 0.175 1.453 0.365 2.9 0.597 4.335 0.076 0.468 0.169 0.932 0.251 1.398 0.255 1.458 0.531 2.906 0.842 4.343 0.034 0.16 0.056 0.318 0.091 0.474-19 11.867-25.691 13.033-26.628 13.142-7.922-0.793-41.185-19.345-97.585-66.172-47.335-39.301-88.916-80.544-103.47-102.62-18.546-28.145-26.126-53.602-24.583-82.541 3.145-58.773 51.995-106.59 108.89-106.59 59.071 0 103.43 65.348 103.86 65.988 2.773 4.177 7.431 6.709 12.444 6.784 4.966 0.065 9.746-2.335 12.64-6.427 0.47-0.664 47.599-66.345 104.07-66.345 56.903 0 105.75 47.815 108.9 106.59 1.569 29.26-5.785 53.948-24.586 82.552-5.319 8.088-14.2 18.78-25.927 31.239-0.851-0.35-1.718-0.661-2.578-0.99-0.664-0.255-1.322-0.523-1.993-0.765-0.725-0.261-1.459-0.496-2.189-0.742-1.014-0.344-2.026-0.69-3.052-1.005-0.439-0.134-0.885-0.248-1.325-0.377-1.304-0.38-2.613-0.752-3.937-1.085-0.226-0.056-0.456-0.102-0.682-0.158-1.514-0.369-3.037-0.719-4.575-1.024-0.126-0.026-0.252-0.043-0.378-0.068-1.616-0.315-3.239-0.602-4.879-0.845-0.181-0.027-0.365-0.044-0.546-0.07-1.567-0.223-3.139-0.427-4.726-0.584-0.517-0.052-1.037-0.074-1.553-0.119-1.254-0.105-2.508-0.217-3.774-0.28-1.807-0.091-3.619-0.138-5.431-0.138-60.104 0-109 48.897-109 109 1e-3 1.955 0.059 3.896 0.161 5.824zm108.84 72.782c-34.728 0-64.246-22.647-74.616-53.941-0.229-0.693-0.454-1.386-0.664-2.084-0.111-0.366-0.21-0.739-0.316-1.108-0.682-2.4-1.246-4.826-1.696-7.272-0.1-0.549-0.207-1.097-0.295-1.649-0.093-0.576-0.172-1.154-0.251-1.733-0.09-0.652-0.176-1.304-0.251-1.961-0.059-0.524-0.114-1.047-0.163-1.572-0.071-0.772-0.129-1.547-0.178-2.324-0.027-0.429-0.059-0.856-0.079-1.286-0.056-1.219-0.093-2.44-0.093-3.672 0-43.342 35.26-78.601 78.601-78.601 1.532 0 3.061 0.055 4.586 0.144 0.401 0.024 0.798 0.062 1.198 0.093 1.158 0.085 2.315 0.19 3.467 0.327 0.407 0.047 0.812 0.1 1.218 0.157 1.202 0.16 2.402 0.35 3.593 0.565 0.312 0.056 0.625 0.108 0.935 0.167 2.988 0.581 5.939 1.333 8.836 2.251 0.455 0.146 0.903 0.306 1.353 0.459 0.906 0.306 1.806 0.626 2.7 0.965 0.643 0.245 1.283 0.497 1.918 0.758 0.648 0.264 1.287 0.546 1.927 0.828 0.752 0.334 1.509 0.663 2.25 1.018 0.234 0.112 0.461 0.237 0.695 0.351 25.997 12.835 43.928 39.616 43.928 70.518 0 43.341-35.263 78.602-78.603 78.602z"/>
		<path d="m410.77 377.27 17.62-17.621c5.936-5.936 5.936-15.56 0-21.496-5.937-5.934-15.559-5.934-21.497 0l-17.62 17.621-17.62-17.621c-5.937-5.934-15.559-5.934-21.497 0-5.936 5.936-5.936 15.56 0 21.497l17.62 17.621-17.62 17.62c-5.936 5.936-5.936 15.56 0 21.497 2.969 2.967 6.858 4.452 10.748 4.452s7.779-1.485 10.748-4.452l17.62-17.62 17.62 17.62c2.969 2.967 6.858 4.452 10.748 4.452s7.779-1.485 10.748-4.452c5.936-5.936 5.936-15.56 0-21.497l-17.618-17.621z"/>
</svg>
