<?xml version="1.0" encoding="UTF-8"?>
<svg enable-background="new 0 0 512.001 512.001" version="1.1" viewBox="0 0 512 512" xml:space="preserve" xmlns="http://www.w3.org/2000/svg">
		<path d="m511.76 181.79c-1.925-35.964-17.153-69.735-42.881-95.093-26.105-25.731-60.188-39.9-95.972-39.9-53.129 0-96.55 41.179-116.65 64.164-19.518-23.13-61.927-64.164-117.17-64.164-35.78 0-69.863 14.171-95.967 39.9-25.724 25.359-40.953 59.131-42.877 95.095-1.911 35.774 7.193 66.832 29.513 100.7 20.068 30.449 72.394 78.655 111.1 110.68 39.713 32.858 91.964 72.026 115.37 72.026 23.764 0 75.828-39.084 115.32-71.871 38.413-31.893 90.458-80.06 110.71-110.85 15.025-22.854 31.952-54.951 29.5-100.69zm-53.504 84.909c-14.878 22.623-56.752 64.344-104.2 103.82-56.938 47.373-90.252 65.6-97.748 65.961-7.613-0.457-41.011-18.87-98.222-66.332-47.716-39.584-89.647-81.162-104.34-103.46-18.722-28.411-26.374-54.121-24.814-83.363 3.182-59.441 52.596-107.8 110.16-107.8 59.764 0 104.52 65.965 104.96 66.615 2.62 3.948 7.024 6.342 11.762 6.411 0.07 1e-3 0.142 1e-3 0.213 1e-3 4.657 0 9.037-2.267 11.732-6.076 0.474-0.669 48.022-66.951 105.16-66.951 57.562 0 106.98 48.358 110.16 107.8 1.585 29.567-5.836 54.502-24.815 83.374z"/>
		<path d="m139.09 106.1c-11.491 0-22.658 2.623-33.193 7.794-26.597 13.055-44.823 40.952-46.433 71.071-1.222 22.889 4.519 41.693 19.814 64.905 4.305 6.533 19.005 24.115 29.128 34.836 2.827 2.992 6.632 4.503 10.448 4.503 3.538 0 7.083-1.3 9.859-3.92 5.769-5.447 6.029-14.539 0.583-20.306-10.15-10.755-23.208-26.643-26.029-30.923-11.904-18.067-16.001-30.958-15.115-47.564 1.064-19.894 12.999-38.27 30.406-46.813 6.56-3.221 13.47-4.854 20.533-4.854 7.932 0 14.365-6.431 14.365-14.365s-6.434-14.364-14.366-14.364z"/>
		<path d="m150.8 290.17h-0.014c-7.932 0-14.358 6.431-14.358 14.365s6.438 14.365 14.372 14.365 14.365-6.431 14.365-14.365-6.431-14.365-14.365-14.365z"/>
		<path d="m418.62 209.44 25.255-25.255c1.052-1.052 1.906-2.227 2.564-3.478 1.096-2.084 1.643-4.383 1.643-6.681 1e-3 -3.679-1.401-7.355-4.206-10.16l-41.745-41.745c-2.695-2.693-6.348-4.207-10.157-4.207-0.477 0-0.95 0.023-1.419 0.07-3.288 0.326-6.38 1.78-8.738 4.137l-25.256 25.256-25.255-25.255c-2.695-2.693-6.348-4.208-10.157-4.208s-7.463 1.514-10.157 4.208l-41.745 41.745c-2.805 2.805-4.207 6.481-4.207 10.157 0 2.298 0.547 4.595 1.643 6.681 0.658 1.251 1.513 2.425 2.564 3.478l25.255 25.255-25.255 25.255c-0.34 0.34-0.662 0.698-0.964 1.067-0.217 0.264-0.409 0.54-0.605 0.816-0.075 0.106-0.159 0.207-0.231 0.315-0.236 0.353-0.448 0.717-0.649 1.085-0.022 0.04-0.047 0.078-0.069 0.116-0.203 0.381-0.384 0.77-0.55 1.165-0.014 0.034-0.033 0.069-0.047 0.103-0.157 0.379-0.29 0.766-0.414 1.155-0.017 0.057-0.042 0.112-0.059 0.169-0.112 0.369-0.2 0.743-0.281 1.119-0.019 0.083-0.045 0.164-0.06 0.249-0.073 0.368-0.122 0.738-0.165 1.109-0.011 0.095-0.032 0.188-0.042 0.284-0.09 0.935-0.09 1.878 0 2.813 9e-3 0.089 0.027 0.174 0.037 0.263 0.045 0.379 0.095 0.757 0.169 1.13 0.014 0.075 0.039 0.148 0.055 0.221 0.083 0.385 0.174 0.767 0.287 1.145 0.014 0.047 0.033 0.092 0.047 0.138 0.125 0.401 0.264 0.797 0.425 1.188 9e-3 0.022 0.02 0.042 0.029 0.062 0.171 0.409 0.359 0.812 0.57 1.207 0.01 0.019 0.023 0.037 0.033 0.057 0.21 0.389 0.435 0.771 0.685 1.145 0.047 0.07 0.103 0.136 0.151 0.207 0.217 0.315 0.44 0.626 0.685 0.925 0.302 0.369 0.622 0.724 0.961 1.064l41.745 41.743c0.351 0.35 0.715 0.679 1.092 0.987 5.268 4.295 12.867 4.295 18.133 0 0.376-0.307 0.741-0.635 1.092-0.987l25.255-25.255 25.255 25.255c2.805 2.805 6.481 4.207 10.157 4.207s7.352-1.402 10.157-4.207l41.745-41.743c5.609-5.609 5.609-14.705 0-20.315l-25.256-25.255zm-97.47-56.845 15.098 15.099-21.428 21.428-15.098-15.098 21.428-21.429zm70.825 113.68-15.098-15.098 21.428-21.428 15.098 15.098-21.428 21.428zm-3.826-67.001-67 67.001-21.428-21.428 92.254-92.255 21.428 21.428-25.254 25.254z"/>
</svg>
